<svg xmlns="http://www.w3.org/2000/svg" viewBox="0 0 512 512" role="img" aria-labelledby="title desc">
  <title id="title">Current Almanac PWA Icon</title>
  <desc id="desc">A jade-toned circular current glyph on a dark background.</desc>
  <defs>
    <linearGradient id="bg" x1="0%" y1="0%" x2="100%" y2="100%">
      <stop offset="0%" stop-color="#0f172a" />
      <stop offset="100%" stop-color="#111827" />
    </linearGradient>
    <linearGradient id="jade" x1="0%" y1="0%" x2="100%" y2="100%">
      <stop offset="0%" stop-color="#67e8f9" />
      <stop offset="50%" stop-color="#34d399" />
      <stop offset="100%" stop-color="#22c55e" />
    </linearGradient>
  </defs>
  <rect width="512" height="512" rx="112" fill="url(#bg)" />
  <circle cx="256" cy="256" r="166" fill="none" stroke="url(#jade)" stroke-width="30" opacity="0.95" />
  <path
    d="M342 164c-22-18-52-29-86-29-68 0-123 44-123 98 0 30 16 56 41 74 18 13 29 33 29 55v14m106-240c22 4 42 13 58 27 31 26 49 63 49 102 0 64-48 117-111 127"
    fill="none"
    stroke="url(#jade)"
    stroke-linecap="round"
    stroke-linejoin="round"
    stroke-width="32"
  />
  <circle cx="256" cy="380" r="20" fill="#d1fae5" />
</svg>
